<svg width="21" height="22" xmlns="http://www.w3.org/2000/svg"><g fill="#FFF"><path d="M17.978 0c.472 0 .858.382.858.847v9.342c0 .844-.39 1.265-1.17 1.265H12.17c-.635 0-.951.283-.948.849.026 4.64.036 7.454.03 8.44-.006.814-.921 1.203-1.364 1.203H.858A.855.855 0 0 1 0 21.1V.848C0 .38.385 0 .857 0zM8.022 15.008H3.25a.79.79 0 0 0-.795.785.79.79 0 0 0 .795.786h4.772a.79.79 0 0 0 .795-.786.79.79 0 0 0-.795-.785zm0-3.8H3.25a.79.79 0 0 0-.795.785.79.79 0 0 0 .795.786h4.772a.79.79 0 0 0 .795-.786.79.79 0 0 0-.795-.786zm3.956-3.838H3.25a.79.79 0 0 0-.795.786.79.79 0 0 0 .795.786h8.728a.79.79 0 0 0 .795-.786.79.79 0 0 0-.795-.786zm0-3.85H3.25a.79.79 0 0 0-.795.786.79.79 0 0 0 .795.786h8.728a.79.79 0 0 0 .795-.786.79.79 0 0 0-.795-.786z"/><path d="M13.52 14.397c0-.38.325-.688.727-.688h5.822c.503.033.755.262.755.688v6.863c-.087.35-.234.56-.443.63-.312.105-.577.062-.785-.095-.14-.105-.947-.865-2.424-2.279l-2.438 2.279c-.324.219-.637.219-.938 0-.147-.134-.221-.376-.221-.726l-.056-6.672z"/></g></svg>