<svg width="22" height="22" xmlns="http://www.w3.org/2000/svg"><path d="M20.872 8.633H18.94c-.182-.393-.44-1.209-.77-1.79l1.364-1.326a1.078 1.078 0 0 0 0-1.539L17.978 2.43a1.102 1.102 0 0 0-1.558.005l-1.288 1.367c-.58-.33-1.397-.587-1.79-.769V1.102C13.342.492 12.697 0 12.09 0H9.886c-.608 0-1.253.493-1.253 1.102v1.932c-.393.182-1.208.44-1.79.77L5.517 2.44a1.078 1.078 0 0 0-1.539-.001L2.43 3.997c-.43.43-.426 1.127.005 1.558l1.367 1.288c-.33.582-.586 1.397-.768 1.79H1.102C.492 8.633 0 9.278 0 9.886v2.202c0 .608.493 1.254 1.102 1.254h1.932c.182.392.44 1.208.77 1.79L2.44 16.457c-.43.43-.43 1.108 0 1.538l1.557 1.549c.43.43 1.127.425 1.558-.006l1.288-1.367c.582.33 1.397.587 1.79.769v1.931c0 .61.645 1.102 1.253 1.102h2.202c.608 0 1.254-.493 1.254-1.102V18.94c.392-.182 1.208-.44 1.79-.77l1.326 1.364c.43.43 1.108.43 1.538 0l1.549-1.557c.43-.43.425-1.127-.006-1.558l-1.367-1.288c.33-.582.587-1.397.769-1.79h1.931c.61 0 1.102-.644 1.102-1.252V9.886c0-.608-.493-1.253-1.102-1.253zm-9.885 7.309a4.956 4.956 0 1 1 0-9.911 4.956 4.956 0 0 1 0 9.911z" fill="#FFF"/></svg>